<svg xmlns="http://www.w3.org/2000/svg" xmlns:xlink="http://www.w3.org/1999/xlink" width="52" height="52" viewBox="0 0 52 52">
  <defs>
    <filter id="Path_4956" x="0" y="0" width="52" height="52" filterUnits="userSpaceOnUse">
      <feOffset dy="1" input="SourceAlpha"/>
      <feGaussianBlur stdDeviation="1" result="blur"/>
      <feFlood flood-opacity="0.071"/>
      <feComposite operator="in" in2="blur"/>
      <feComposite in="SourceGraphic"/>
    </filter>
    <linearGradient id="linear-gradient" y1="0.5" x2="1" y2="0.5" gradientUnits="objectBoundingBox">
      <stop offset="0.04" stop-color="#faf8e8"/>
      <stop offset="0.418" stop-color="#faf8e8"/>
      <stop offset="0.485" stop-color="#f4f0dd"/>
      <stop offset="0.599" stop-color="#e4dbc2"/>
      <stop offset="0.747" stop-color="#cbb895"/>
      <stop offset="0.797" stop-color="#c2ac85"/>
      <stop offset="1" stop-color="#af9672"/>
    </linearGradient>
    <linearGradient id="linear-gradient-2" y1="0.5" x2="1" y2="0.5" gradientUnits="objectBoundingBox">
      <stop offset="0" stop-color="#faf8e8"/>
      <stop offset="0.053" stop-color="#faf8e8"/>
      <stop offset="0.384" stop-color="#faf8e8"/>
      <stop offset="0.5" stop-color="#f6f2e0"/>
      <stop offset="0.673" stop-color="#ebe3cc"/>
      <stop offset="0.882" stop-color="#d9cbaa"/>
      <stop offset="0.999" stop-color="#cebb95"/>
    </linearGradient>
    <linearGradient id="linear-gradient-3" y1="0.5" x2="1" y2="0.5" gradientUnits="objectBoundingBox">
      <stop offset="0" stop-color="#e5d4bf"/>
      <stop offset="1" stop-color="#f2e8d7"/>
    </linearGradient>
    <linearGradient id="linear-gradient-4" x1="0.459" y1="0.353" x2="1.025" y2="0.588" gradientUnits="objectBoundingBox">
      <stop offset="0" stop-color="#e9dac7"/>
      <stop offset="0.494" stop-color="#ece1d2"/>
      <stop offset="1" stop-color="#eee5d7"/>
    </linearGradient>
    <linearGradient id="linear-gradient-5" y1="0.5" x2="1" y2="0.5" gradientUnits="objectBoundingBox">
      <stop offset="0" stop-color="#e9dac7"/>
      <stop offset="1" stop-color="#ebdecc"/>
    </linearGradient>
    <linearGradient id="linear-gradient-6" x1="0.508" y1="0.332" x2="0.488" y2="0.538" gradientUnits="objectBoundingBox">
      <stop offset="0" stop-color="#af9677"/>
      <stop offset="1" stop-color="#bfad8f"/>
    </linearGradient>
    <linearGradient id="linear-gradient-7" y1="0.5" x2="1" y2="0.5" gradientUnits="objectBoundingBox">
      <stop offset="0" stop-color="#b29f88"/>
      <stop offset="0.255" stop-color="#b4a28b"/>
      <stop offset="1" stop-color="#b8a790"/>
    </linearGradient>
  </defs>
  <g id="Component_392_1" data-name="Component 392 – 1" transform="translate(3 2)">
    <g transform="matrix(1, 0, 0, 1, -3, -2)" filter="url(#Path_4956)">
      <path id="Path_4956-2" data-name="Path 4956" d="M23,0A23,23,0,1,1,0,23,23,23,0,0,1,23,0Z" transform="translate(3 2)" fill="#fff"/>
    </g>
    <g id="Logo-Face" transform="translate(8.397 4.144)">
      <path id="base" d="M25.009,25.65a21.561,21.561,0,0,0-3.934-1.875v-.91c.65-.421.9-1.5,1.288-3.407.05-.246.1-.5.155-.749A17.914,17.914,0,0,1,24.387,15.7c1.181-1.65,2.4-3.355,2.277-5.365l-.081-.295a9.684,9.684,0,0,0-5.452-5.1,13.389,13.389,0,0,0-1.838-.491c-.209-.044-.389-.082-.54-.121L18.7,4.318a22.88,22.88,0,0,0-4.153-.462,12.178,12.178,0,0,0-1.751.12,8.677,8.677,0,0,0-2.207.783,7.813,7.813,0,0,1-2.426.813l-.183.036A4.509,4.509,0,0,0,5.354,7.522l-.092.129-.074.127a5.532,5.532,0,0,0-.4,3.6l.016.061c.2.644.442,1.269.673,1.874a16.166,16.166,0,0,1,1.068,3.607l.09.268a6.69,6.69,0,0,1,.459,1.29,7.486,7.486,0,0,0,1.681,3.36l0,.1v1.426A50.628,50.628,0,0,0,3.96,25.97c-.548.407-1.266,1.4.05,2.235,1.011.641,4.235,2.324,4.225,2.421a3.808,3.808,0,0,0,.65,2.615,3.546,3.546,0,0,0,2.743,1.13,4.384,4.384,0,0,0,2.863-1.009,3.12,3.12,0,0,0,.454-.5,3.142,3.142,0,0,0,.455.5,4.384,4.384,0,0,0,2.863,1.009,3.546,3.546,0,0,0,2.743-1.13,4.149,4.149,0,0,0,.61-3.033s2.184-1.62,3.208-2.588A1.261,1.261,0,0,0,25.009,25.65Z" transform="translate(0)" fill="#fff"/>
      <g id="Group_6338" data-name="Group 6338" transform="translate(4.132 24.069)">
        <path id="Path_4897" data-name="Path 4897" d="M30.843,76.7h0a5.088,5.088,0,0,1,1.922,1.086.329.329,0,0,1,.163.269q0,.251-.375.481a16.069,16.069,0,0,0-1.317.98,12.74,12.74,0,0,1-1.307.942.432.432,0,0,1-.192.048.353.353,0,0,1-.25-.1.317.317,0,0,1-.106-.236.31.31,0,0,1,.086-.211,1.437,1.437,0,0,1,.538-.423,4.591,4.591,0,0,0,.692-.471q.5-.4.692-.529.423-.211.423-.3a.083.083,0,0,0-.01-.038,1.409,1.409,0,0,0-.759-.606q-.471-.134-.952-.279a1.721,1.721,0,0,1-.836-.49.116.116,0,0,1-.019-.067.392.392,0,0,1,.135-.255.375.375,0,0,1,.259-.139.62.62,0,0,1,.154-.019,1.508,1.508,0,0,1,.548.134q.25.106.51.222m-15-.318a.549.549,0,0,1,.36.116.343.343,0,0,1,.139.269.277.277,0,0,1-.086.2,3.771,3.771,0,0,1-1.307.74,2.585,2.585,0,0,0-1.231.846,12.452,12.452,0,0,0,1.413.711q1.394.625,1.442.644a.289.289,0,0,1,.183.279.457.457,0,0,1-.187.408.734.734,0,0,1-.476.169.535.535,0,0,1-.2-.039,3.163,3.163,0,0,0-.317-.269q-1.269-.692-2.711-1.317c-.1-.038-.192-.074-.288-.105a.341.341,0,0,1-.212-.25,1.063,1.063,0,0,1,.365-.769,7.252,7.252,0,0,1,1.461-.817,6.249,6.249,0,0,0,1.432-.817Z" transform="translate(-12.368 -75.685)" fill="#4a352a"/>
        <path id="Path_4898" data-name="Path 4898" d="M36.5,74.811a2,2,0,0,0-.443-.488.8.8,0,0,0-.473-.143.4.4,0,0,0-.165.03l-1.067.368a.675.675,0,0,1-.21.03.559.559,0,0,1-.342-.1,1.538,1.538,0,0,1-.319-.39l-.293.2a2.1,2.1,0,0,0,.473.529.865.865,0,0,0,.5.132.928.928,0,0,0,.263-.038l.976-.353a.589.589,0,0,1,.211-.038.522.522,0,0,1,.3.077,1.57,1.57,0,0,1,.316.352l.278-.166" transform="translate(-26.988 -74.12)" fill="#4a352a"/>
        <path id="Path_4899" data-name="Path 4899" d="M55.153,95.671c.535,3.2-3.38,3.511-4.986,2.074-1.11-.993-.8-2.373.794-2.289,1.4.074,2.229,1.881,4.192.215" transform="translate(-38.45 -89.1)" fill="#4a352a" fill-rule="evenodd"/>
        <path id="Path_4900" data-name="Path 4900" d="M28.419,95.671c-.535,3.2,3.38,3.511,4.986,2.074,1.11-.993.8-2.373-.794-2.289-1.4.074-2.229,1.881-4.192.215" transform="translate(-23.604 -89.1)" fill="#4a352a" fill-rule="evenodd"/>
        <path id="Path_4901" data-name="Path 4901" d="M37.4,80.14a1.119,1.119,0,0,0-.661-.189,1.075,1.075,0,0,0-.771.283.962.962,0,0,0-.268.9,1.551,1.551,0,0,0,.338.835.875.875,0,0,0,.7.362,1.106,1.106,0,0,0,.52-.142,1.162,1.162,0,0,0,.472-1.087A1.124,1.124,0,0,0,37.4,80.14Zm-.675,1.274a.336.336,0,1,1,.336-.336A.336.336,0,0,1,36.729,81.414Z" transform="translate(-28.745 -78.215)" fill="#4a352a"/>
        <path id="Path_4902" data-name="Path 4902" d="M46.739,92.008a.79.79,0,0,0,.283-.052,1.007,1.007,0,0,0,.244-.136,1.374,1.374,0,0,0,.2-.19,1.689,1.689,0,0,0,.158-.212,1.626,1.626,0,0,0,.11-.2,1.053,1.053,0,0,0,.06-.164.124.124,0,0,0-.013-.03.211.211,0,0,0-.019-.031c-.007-.008-.012-.012-.015-.011a1.456,1.456,0,0,1-.284.382,1.028,1.028,0,0,1-.35.217,1.182,1.182,0,0,1-.413.068,1.076,1.076,0,0,1-.341-.051.9.9,0,0,1-.272-.142,1.163,1.163,0,0,1-.219-.225,1.928,1.928,0,0,1-.179-.29s-.008,0-.015.01a.139.139,0,0,0-.019.027A.05.05,0,0,0,45.65,91a2.394,2.394,0,0,0,.183.389,1.688,1.688,0,0,0,.244.321,1.084,1.084,0,0,0,.3.219.844.844,0,0,0,.358.081" transform="translate(-35.74 -85.929)" fill="#4a352a"/>
        <path id="Path_4903" data-name="Path 4903" d="M55.748,80.061a1.119,1.119,0,0,0-.661-.189,1.078,1.078,0,0,0-.772.283.964.964,0,0,0-.268.9,1.549,1.549,0,0,0,.339.834.874.874,0,0,0,.7.362,1.109,1.109,0,0,0,.52-.142,1.161,1.161,0,0,0,.473-1.086A1.123,1.123,0,0,0,55.748,80.061ZM54.974,81.4a.336.336,0,1,1,.336-.336A.336.336,0,0,1,54.974,81.4Z" transform="translate(-41.627 -78.159)" fill="#4a352a"/>
      </g>
      <g id="Cap" transform="translate(5.283 4.411)">
        <g id="Group_6321" data-name="Group 6321">
          <path id="Path_4904" data-name="Path 4904" d="M31.722,25.973c.547-.239.828-2.083,1.2-3.8,1.33-3.042,4.3-5.281,4.124-8.111C34.6,9.288,31.19,9.118,29.727,8.738A17.493,17.493,0,0,0,24.051,8.4c-1.345.2-3.089,1.492-4.7,1.6A3.9,3.9,0,0,0,17,11.78a4.786,4.786,0,0,0-.355,3.126,33.446,33.446,0,0,1,1.773,5.618c.621,1.1.665,3.168,2.084,4.562C24.849,23.016,28.4,24.622,31.722,25.973Z" transform="translate(-16.441 -8.231)" fill="url(#linear-gradient)"/>
          <path id="Path_4905" data-name="Path 4905" d="M31.466,25.862l-.406-.166c-3.262-1.332-6.636-2.71-10.8-.728l-.024.011-.018-.018a6.7,6.7,0,0,1-1.566-3.123,7.114,7.114,0,0,0-.525-1.447l0-.013A16.994,16.994,0,0,0,17.016,16.6c-.228-.6-.464-1.212-.661-1.838a4.846,4.846,0,0,1,.356-3.152l.1-.141A3.852,3.852,0,0,1,19.083,9.82a8.33,8.33,0,0,0,2.688-.879,8.26,8.26,0,0,1,2.019-.728,17.3,17.3,0,0,1,5.688.338c.169.044.358.084.576.13a8.878,8.878,0,0,1,6.766,5.212l0,.015c.11,1.76-.988,3.293-2.15,4.916A18.1,18.1,0,0,0,32.7,22.036c-.057.27-.115.55-.171.827-.305,1.495-.569,2.786-1.045,2.994ZM24.494,23.9a17.467,17.467,0,0,1,6.594,1.728l.377.154c.433-.214.7-1.536.989-2.934.057-.277.114-.557.173-.835a18.14,18.14,0,0,1,1.986-3.232c1.153-1.61,2.242-3.13,2.137-4.861-2.151-4.2-5.006-4.807-6.712-5.167-.219-.046-.409-.086-.577-.13A17.222,17.222,0,0,0,23.8,8.286a8.19,8.19,0,0,0-2,.722,8.349,8.349,0,0,1-2.7.883,3.785,3.785,0,0,0-2.226,1.624l-.1.135a4.771,4.771,0,0,0-.348,3.1c.2.621.431,1.236.659,1.831A17.092,17.092,0,0,1,18.2,20.361a7.23,7.23,0,0,1,.528,1.457,6.684,6.684,0,0,0,1.528,3.073A9.736,9.736,0,0,1,24.494,23.9Z" transform="translate(-16.236 -8.098)" fill="#bfaf98"/>
        </g>
        <g id="Group_6322" data-name="Group 6322" transform="translate(4.129 13.724)">
          <path id="Path_4906" data-name="Path 4906" d="M30.2,58.563c1.567-.831,5.483-2.887,10.73.718a8.108,8.108,0,0,0,.045-2.535c-.148-2-7.979-4.444-10.819-.042l.044,1.858" transform="translate(-30.14 -54.225)" fill-rule="evenodd" fill="url(#linear-gradient-2)"/>
          <path id="Path_4907" data-name="Path 4907" d="M40.9,59.272l-.02-.014a10.174,10.174,0,0,0-6.735-2.02,10.291,10.291,0,0,0-3.979,1.3l-.023.012v-.026L30.1,56.664l0,0a5.28,5.28,0,0,1,3.459-2.293,9.12,9.12,0,0,1,4.116.127c1.866.475,3.212,1.387,3.274,2.216a8.16,8.16,0,0,1-.045,2.539Zm-5.985-2.1a10.54,10.54,0,0,1,5.962,2.046,8.117,8.117,0,0,0,.04-2.505c-.059-.8-1.426-1.724-3.25-2.189a9.094,9.094,0,0,0-4.1-.127,5.252,5.252,0,0,0-3.436,2.276l.043,1.828a10.278,10.278,0,0,1,3.968-1.294Q34.531,57.171,34.918,57.171Z" transform="translate(-30.102 -54.188)" fill="#bfaf98"/>
        </g>
        <g id="Group_6323" data-name="Group 6323" transform="translate(0.416 0.499)">
          <g id="_1" data-name="1" transform="translate(0 2.273)">
            <path id="Path_4908" data-name="Path 4908" d="M19.536,17.971c-.241,1.217.836,5.06.476,7.078a28.263,28.263,0,0,1-.832-4.338,7.464,7.464,0,0,0-1.011-1.9c-.324-.3.74-2.053,1.366-.842" transform="translate(-17.968 -17.508)" fill-rule="evenodd" fill="url(#linear-gradient-3)"/>
            <path id="Path_4909" data-name="Path 4909" d="M21.66,30.243l0-.006c-1.42-1.661-2-4.521-2.5-6.933-.391-1.914-.725-3.545-1.369-4.06l0,0a.752.752,0,0,1-.145-.361,1.25,1.25,0,0,1,.141-.707,1.561,1.561,0,0,1,.495-.58,1.049,1.049,0,0,1,.465-.185l0,.032a1.01,1.01,0,0,0-.45.179,3.783,3.783,0,0,0-.379.567c-.316.631.339.6.6.944.653.524.707,2.248,1.1,4.167.493,2.408.652,5.264,2.066,6.918h0l0,.006-.026.021" transform="translate(-17.633 -17.409)" fill="#9c8461"/>
          </g>
          <g id="_2" data-name="2" transform="translate(2.132 1.517)">
            <path id="Path_4910" data-name="Path 4910" d="M26.757,15.66c-.241,1.218.376,4.011.016,6.03a28.287,28.287,0,0,1-.832-4.338c-.327-.709-.718-1.518-.947-1.937-.2-.374.874-.883,1.763.245" transform="translate(-24.916 -14.94)" fill-rule="evenodd" fill="url(#linear-gradient-4)"/>
            <path id="Path_4911" data-name="Path 4911" d="M26.163,15.164a.784.784,0,0,0-.7-.165.6.6,0,0,0-.274.1.324.324,0,0,0-.133.208c-.014.127-.1.149.019.383h0a9.824,9.824,0,0,1,1.555,4.723c.211,2.39-.066,5.036,1.516,6.911l-.026.02c-1.589-1.883-1.823-4.535-2.034-6.929-.166-1.881-.318-3.6-1.1-4.664h0a.733.733,0,0,1-.188-.542.355.355,0,0,1,.146-.227.628.628,0,0,1,.291-.107,1.43,1.43,0,0,1,.948.263l-.02.026" transform="translate(-24.792 -14.868)" fill="#9c8461"/>
          </g>
          <g id="_3" data-name="3" transform="translate(5.654)">
            <path id="Path_4912" data-name="Path 4912" d="M39.746,9.9c.731,1.222-.613,6.714-.85,10.169-.02.289-2.6-11.4.85-10.169" transform="translate(-37.555 -9.801)" fill="url(#linear-gradient-5)"/>
            <path id="Path_4913" data-name="Path 4913" d="M38.506,23.093a32.769,32.769,0,0,1-1.866-8.914,9.561,9.561,0,0,1,.239-3c.231-.784.632-1.3,1.252-1.388a1.713,1.713,0,0,1,.682.051l-.009.031a1.617,1.617,0,0,0-.677.021c-.52.117-.459.442-.8,1.178a7.793,7.793,0,0,0-.252,2.909c.443,2.9.988,6.852,1.459,9.1l-.032.011" transform="translate(-36.622 -9.774)" fill="#aa9572"/>
          </g>
          <path id="_4" data-name="4" d="M49.63,23.558c-.032-.234-.065-.475-.1-.719-.542-3.911-1.206-8.7,1.121-12.134l.029.017c-.953,2.544-1.084,7.391-1.2,8.955-.049.676.029,2.124.081,3.157l.1.719-.034,0" transform="translate(-39.666 -10.428)" fill="#c3ae8a"/>
          <path id="_5" data-name="5" d="M59.55,25.1c.082-2.028.3-4.4.492-6.451.488-2.59,1.807-3.817,2.15-6.436l.006-.033a17.8,17.8,0,0,0-2.32,6.473,30.833,30.833,0,0,0-.293,6.444H59.55" transform="translate(-47.059 -11.463)" fill="url(#linear-gradient-6)"/>
          <g id="_6" data-name="6" transform="translate(14.413 3.806)">
            <path id="Path_4914" data-name="Path 4914" d="M71.621,22.617c-1.049,3.251-2.3,6.429-3.569,9.644.033-4.257,2.317-9.38,3.569-9.644" transform="translate(-67.452 -22.599)" fill="url(#linear-gradient-7)"/>
            <path id="Path_4915" data-name="Path 4915" d="M66.038,33.652a3.75,3.75,0,0,0,.641-2.493,8.3,8.3,0,0,1,.559-3.083c.012-.038.031-.106.057-.2.307-1.076,1.543-5.4,2.986-5.32l0,.033c-1.131-.043-2.568,4.234-2.909,5.3-.026.09-.032.146-.046.188v0a13.244,13.244,0,0,0-.563,3.079,3.771,3.771,0,0,1-.7,2.514l-.025-.022" transform="translate(-66.038 -22.556)" fill="#9c8461"/>
          </g>
        </g>
      </g>
    </g>
  </g>
</svg>
